<svg width="38" height="50" viewBox="0 0 38 50" fill="none" xmlns="http://www.w3.org/2000/svg">
<mask id="path-1-inside-1_65_176" fill="white">
<path fill-rule="evenodd" clip-rule="evenodd" d="M19.6148 0C20.5902 12.4809 28.1333 22.4015 37.623 23.6841V23.965C27.6732 25.3098 19.8633 36.1505 19.5198 49.4818H19.496C19.1366 35.5343 10.6048 24.3131 0 23.8401V23.809C10.1361 23.357 18.3784 13.0857 19.4009 0H19.6148Z"/>
</mask>
<path fill-rule="evenodd" clip-rule="evenodd" d="M19.6148 0C20.5902 12.4809 28.1333 22.4015 37.623 23.6841V23.965C27.6732 25.3098 19.8633 36.1505 19.5198 49.4818H19.496C19.1366 35.5343 10.6048 24.3131 0 23.8401V23.809C10.1361 23.357 18.3784 13.0857 19.4009 0H19.6148Z" fill="#0E0E0E"/>
<path d="M37.623 23.6841H40.623V21.0623L38.0249 20.7112L37.623 23.6841ZM19.6148 0L22.6057 -0.233719L22.3896 -3H19.6148V0ZM37.623 23.965L38.0249 26.938L40.623 26.5869V23.965H37.623ZM19.5198 49.4818V52.4818H22.4435L22.5188 49.5591L19.5198 49.4818ZM19.496 49.4818L16.497 49.5591L16.5723 52.4818H19.496V49.4818ZM0 23.8401H-3V26.7093L-0.133664 26.8372L0 23.8401ZM0 23.809L-0.133664 20.812L-3 20.9399V23.809H0ZM19.4009 0V-3H16.6262L16.4101 -0.233719L19.4009 0ZM38.0249 20.7112C30.4441 19.6866 23.5166 11.4227 22.6057 -0.233719L16.624 0.233719C17.6637 13.5392 25.8224 25.1165 37.2212 26.6571L38.0249 20.7112ZM40.623 23.965V23.6841H34.623V23.965H40.623ZM22.5188 49.5591C22.8405 37.0745 30.077 28.0122 38.0249 26.938L37.2212 20.9921C25.2693 22.6074 16.8861 35.2264 16.5208 49.4046L22.5188 49.5591ZM19.496 52.4818H19.5198V46.4818H19.496V52.4818ZM-0.133664 26.8372C8.25802 27.2114 16.1593 36.4532 16.497 49.5591L22.495 49.4046C22.1139 34.6155 12.9515 21.4148 0.133664 20.8431L-0.133664 26.8372ZM-3 23.809V23.8401H3V23.809H-3ZM16.4101 -0.233719C15.4521 12.0259 7.89082 20.4541 -0.133664 20.812L0.133664 26.8061C12.3813 26.2598 21.3047 14.1456 22.3918 0.233719L16.4101 -0.233719ZM19.6148 -3H19.4009V3H19.6148V-3Z" fill="white" mask="url(#path-1-inside-1_65_176)"/>
</svg>
